Bending.The.Rules.2012.BRRip.AC3-5.1.x264-SiC







Description:
Detective Nick Blades (WWE Superstar Edge) is a New Orleans cop on trial for corruption. Assistant District Attorney Theo Gold (Jamie Kennedy, Ghost Whisperer) is the man in charge of putting him behind bars. When these two unlikely partners from opposite sides of the law stumble onto a criminal plot, theyÆll need to rely on luck û and patience û to take down a dangerous killer without killing each other first. Alicia Witt (88 Minutes), Jennifer Esposito (Crash) and Jessica Walter (Arrested Development) co-star in a story that proves that when the going gets tough, itÆs time to start Bending the Rules.

Action | Drama

General:
Unique ID : 239640394319791922519779831208977588614 (0xB4490FA640069385AD7F06CE8ADB6186)
Complete name : Bending.The.Rules.2012.BRRiP.AC3-5.1.x264-SiC.mkv
Format : Matroska
Format version : Version 2
File size : 1.76 GiB
Duration : 1h 23mn
Overall bit rate : 3 006 Kbps
Encoded date : UTC 2012-04-16 04:55:43
Writing application : mkvmerge v5.2.1 ('A Far Off Place') built on Jan 2 2012 23:21:10
Writing library : libebml v1.2.3 + libmatroska v1.3.0

Video
ID : 1
Format : AVC
Format/Info : Advanced Video Codec
Format profile : High@L4.1
Format settings, CABAC : Yes
Format settings, ReFrames : 3 frames
Codec ID : V_MPEG4/ISO/AVC
Duration : 1h 23mn
Bit rate : 2 621 Kbps
Width : 720 pixels
Height : 384 pixels
Display aspect ratio : 1.875
Frame rate : 23.976 fps
Color space : YUV
Chroma subsampling : 4:2:0
Bit depth : 8 bits
Scan type : Progressive
Bits/(Pixel*Frame) : 0.395
Stream size : 1.50 GiB (85%)
Title : Bending.The.Rules.2012.BRRiP.AC3-5.1.x264-SiC
Writing library : x264 core 120 r2164 da19765
Encoding settings : cabac=1 / ref=4 / deblock=1:0:0 / analyse=0x3:0x133 / me=umh / subme=7 / psy=1 / psy_rd=1.00:0.00 / mixed_ref=1 / me_range=16 / chroma_me=1 / trellis=2 / 8x8dct=1 / cqm=0 / deadzone=21,11 / fast_pskip=1 / chroma_qp_offset=-2 / threads=3 / sliced_threads=0 / slices=4 / nr=0 / decimate=1 / interlaced=0 / bluray_compat=0 / constrained_intra=0 / bframes=4 / b_pyramid=1 / b_adapt=1 / b_bias=0 / direct=1 / weightb=1 / open_gop=0 / weightp=0 / keyint=23 / keyint_min=1 / scenecut=40 / intra_refresh=0 / rc_lookahead=23 / rc=2pass / mbtree=1 / bitrate=2621 / ratetol=1.0 / qcomp=0.60 / qpmin=10 / qpmax=51 / qpstep=4 / cplxblur=20.0 / qblur=0.5 / ip_ratio=1.40 / aq=1:1.00
Language : English
Default : Yes
Forced : No

Audio
ID : 2
Format : AC-3
Format/Info : Audio Coding 3
Mode extension : CM (complete main)
Codec ID : A_AC3
Duration : 1h 23mn
Bit rate mode : Constant
Bit rate : 384 Kbps
Channel(s) : 6 channels
Channel positions : Front: L C R, Side: L R, LFE
Sampling rate : 48.0 KHz
Bit depth : 16 bits
Compression mode : Lossy
Stream size : 230 MiB (13%)
Language : English
Default : Yes
Forced : No




